<svg height="128" viewBox="0 0 128 128" width="128" xmlns="http://www.w3.org/2000/svg"><path d="m11.307 112.218h105.386a5 5 0 0 1 5 5v4.475a0 0 0 0 1 0 0h-115.386a0 0 0 0 1 0 0v-4.475a5 5 0 0 1 5-5z" fill="#8ac9fe" transform="matrix(-1 0 0 -1 128 233.912)"/><path d="m15.48 112.218v-40.107a4 4 0 0 1 4-4.005h89.03a4 4 0 0 1 4 4.005v40.107z" fill="#eaf6ff"/><path d="m28.584 68.106v-29.567a4 4 0 0 1 4-4h62.832a4 4 0 0 1 4 4v29.567z" fill="#fcd1e8"/><path d="m71.5 16.728a3.808 3.808 0 0 0 4.994 0 5.164 5.164 0 0 0 1.427-5.112c-.601-3.1-3.921-5.309-3.921-5.309s-3.32 2.209-3.924 5.309a5.164 5.164 0 0 0 1.424 5.112z" fill="#ffb65f"/><path d="m69.933 22.46h8.134v12.078h-8.134z" fill="#f07281"/><path d="m51.5 16.728a3.808 3.808 0 0 0 4.994 0 5.164 5.164 0 0 0 1.427-5.112c-.601-3.1-3.921-5.309-3.921-5.309s-3.32 2.209-3.924 5.309a5.164 5.164 0 0 0 1.424 5.112z" fill="#ffb65f"/><path d="m49.933 22.46h8.134v12.078h-8.134z" fill="#f07281"/><path d="m99.416 38.54v11.48a7.244 7.244 0 0 1 -10.12 0 7.244 7.244 0 0 0 -10.12 0 7.244 7.244 0 0 1 -10.12 0 7.244 7.244 0 0 0 -10.12 0 7.232 7.232 0 0 1 -10.11 0 7.244 7.244 0 0 0 -10.12 0 7.257 7.257 0 0 1 -10.12 0v-11.48a4 4 0 0 1 4-4h62.83a4 4 0 0 1 4 4z" fill="#dc8758"/><path d="m112.516 72.11v11.61a7.7 7.7 0 0 1 -10.78 0 7.728 7.728 0 0 0 -10.78 0 7.7 7.7 0 0 1 -10.78 0 7.74 7.74 0 0 0 -10.79 0 7.7 7.7 0 0 1 -10.78 0 7.728 7.728 0 0 0 -10.78 0 7.7 7.7 0 0 1 -10.78 0 7.728 7.728 0 0 0 -10.78 0 7.721 7.721 0 0 1 -10.79 0v-11.61a4.007 4.007 0 0 1 4.01-4h89.03a4 4 0 0 1 4 4z" fill="#dc8758"/><path d="m15.48 99.066h97.039v13.146h-97.039z" fill="#fcd1e8"/><path d="m91.829 119.943h-4.5a1.75 1.75 0 0 0 0 3.5h4.5a1.75 1.75 0 0 0 0-3.5z"/><path d="m121.693 110.468h-7.424v-38.357a5.762 5.762 0 0 0 -5.754-5.755h-7.349v-27.817a5.756 5.756 0 0 0 -5.75-5.75h-15.6v-10.329a1.75 1.75 0 0 0 -1.75-1.75h-2.316v-1.6a5.35 5.35 0 0 0 1.911-1.079 6.9 6.9 0 0 0 1.982-6.754c-.724-3.71-4.272-6.163-4.673-6.431a1.751 1.751 0 0 0 -1.94 0c-.4.268-3.949 2.721-4.673 6.432a6.9 6.9 0 0 0 1.982 6.753 5.338 5.338 0 0 0 1.911 1.08v1.6h-2.316a1.75 1.75 0 0 0 -1.75 1.75v10.328h-8.367v-10.329a1.751 1.751 0 0 0 -1.75-1.75h-2.317v-1.6a5.359 5.359 0 0 0 1.911-1.079 6.9 6.9 0 0 0 1.981-6.754c-.724-3.71-4.27-6.163-4.673-6.431a1.748 1.748 0 0 0 -1.938 0c-.4.268-3.95 2.721-4.673 6.431a6.9 6.9 0 0 0 1.981 6.753 5.346 5.346 0 0 0 1.911 1.08v1.6h-2.317a1.751 1.751 0 0 0 -1.75 1.75v10.329h-15.6a5.757 5.757 0 0 0 -5.75 5.75v20.2a1.75 1.75 0 0 0 3.5 0v-5.529a8.944 8.944 0 0 0 9.591-1.937 5.467 5.467 0 0 1 7.676 0 8.949 8.949 0 0 0 12.562 0 5.467 5.467 0 0 1 7.676 0 8.95 8.95 0 0 0 12.562 0 5.467 5.467 0 0 1 7.676 0 8.933 8.933 0 0 0 9.59 1.937v13.146h-78.181a5.762 5.762 0 0 0 -5.755 5.755v38.357h-7.423a1.751 1.751 0 0 0 -1.75 1.75v4.475a6.758 6.758 0 0 0 6.75 6.75h66.786a1.75 1.75 0 0 0 0-3.5h-66.786a3.254 3.254 0 0 1 -3.25-3.25v-2.725h111.886v2.725a3.254 3.254 0 0 1 -3.25 3.25h-15.208a1.75 1.75 0 0 0 0 3.5h15.208a6.758 6.758 0 0 0 6.75-6.75v-4.475a1.75 1.75 0 0 0 -1.75-1.75zm-49.9-98.517a6.933 6.933 0 0 1 2.207-3.402 6.823 6.823 0 0 1 2.208 3.4 3.461 3.461 0 0 1 -.874 3.47 2 2 0 0 1 -1.328.49h-.006a2 2 0 0 1 -1.328-.49 3.459 3.459 0 0 1 -.879-3.468zm-20 0a6.957 6.957 0 0 1 2.2-3.4 6.814 6.814 0 0 1 2.208 3.4 3.462 3.462 0 0 1 -.873 3.47 2 2 0 0 1 -1.328.49 2 2 0 0 1 -1.328-.49 3.461 3.461 0 0 1 -.879-3.47zm19.891 12.259h4.632v8.579h-4.632zm-20 0h4.634v8.579h-4.635zm38.835 24.556a8.95 8.95 0 0 0 -12.562 0 5.467 5.467 0 0 1 -7.676 0 8.949 8.949 0 0 0 -12.562 0 5.469 5.469 0 0 1 -7.676 0 8.949 8.949 0 0 0 -12.562 0 5.446 5.446 0 0 1 -7.148.423v-10.65a2.253 2.253 0 0 1 2.25-2.25h62.833a2.253 2.253 0 0 1 2.25 2.25v10.651a5.445 5.445 0 0 1 -7.147-.424zm-73.289 38.179a9.413 9.413 0 0 0 10.254-1.97 5.941 5.941 0 0 1 8.339 0 9.422 9.422 0 0 0 13.225 0 5.94 5.94 0 0 1 8.339 0 9.42 9.42 0 0 0 13.225 0 5.939 5.939 0 0 1 8.339 0 9.422 9.422 0 0 0 13.226 0 5.939 5.939 0 0 1 8.339 0 9.411 9.411 0 0 0 10.253 1.97v10.371h-93.539zm2.255-17.089h89.03a2.257 2.257 0 0 1 2.254 2.255v10.781a5.918 5.918 0 0 1 -7.81-.423 9.422 9.422 0 0 0 -13.226 0 5.942 5.942 0 0 1 -8.339 0 9.421 9.421 0 0 0 -13.225 0 5.939 5.939 0 0 1 -8.339 0 9.422 9.422 0 0 0 -13.225 0 5.94 5.94 0 0 1 -8.339 0 9.423 9.423 0 0 0 -13.226 0 5.916 5.916 0 0 1 -7.81.423v-10.781a2.258 2.258 0 0 1 2.255-2.255zm-2.255 30.96h93.539v9.652h-93.539z"/><path d="m50.339 18.035v-.001z"/></svg>